<svg width="110" height="69" viewBox="0 0 110 69" fill="none" xmlns="http://www.w3.org/2000/svg">
<path d="M53.1117 0.131828C53.9527 0.00539359 54.8549 0.0190226 55.7051 0.00398205C67.2273 -0.202825 78.1017 7.66759 82.2964 18.5109C82.864 19.9787 83.3089 21.5744 83.6003 23.1241C84.083 25.6936 83.9557 30.0178 86.101 31.7611C88.8185 33.9692 97.076 30.3318 104.469 37.6828C107.975 41.1689 109.988 45.6388 109.999 50.659C110.002 50.9532 109.998 51.2473 109.987 51.5412C109.976 51.8351 109.958 52.1286 109.932 52.4216C109.906 52.7145 109.874 53.0067 109.834 53.2982C109.794 53.5896 109.747 53.8797 109.693 54.1686C109.639 54.4578 109.577 54.7453 109.509 55.0311C109.441 55.3169 109.366 55.6008 109.284 55.8828C109.202 56.1648 109.113 56.4446 109.017 56.7222C108.921 56.9998 108.819 57.2748 108.709 57.5471C108.6 57.8191 108.484 58.0884 108.362 58.3551C108.239 58.6214 108.11 58.8844 107.975 59.1442C107.84 59.404 107.698 59.6601 107.55 59.9127C107.402 60.1652 107.248 60.4139 107.088 60.6586C106.928 60.9033 106.762 61.1438 106.59 61.3801C106.418 61.6163 106.24 61.8482 106.057 62.0757C105.874 62.3029 105.685 62.5252 105.491 62.7427C105.297 62.9604 105.097 63.173 104.893 63.3805C104.595 63.6763 104.287 63.9614 103.97 64.2359C103.653 64.5104 103.328 64.7738 102.993 65.026C102.659 65.2782 102.316 65.5187 101.966 65.7475C101.616 65.9762 101.259 66.1927 100.894 66.397C100.53 66.601 100.159 66.7925 99.7814 66.9714C99.4043 67.15 99.0218 67.3154 98.6339 67.4677C98.2457 67.6203 97.8528 67.7593 97.4554 67.8846C97.0583 68.01 96.6573 68.1217 96.2525 68.2197C91.1809 69.4441 85.3601 68.8618 80.1668 68.8604L57.1109 68.8538L31.409 68.8656C26.4656 68.8693 20.9721 69.3685 16.125 68.3918C15.387 68.2429 14.6597 68.0516 13.9429 67.8179C13.2261 67.5844 12.5248 67.31 11.8391 66.9944C11.1533 66.6789 10.4874 66.3245 9.84134 65.9312C9.19525 65.538 8.57328 65.1086 7.97545 64.6429C3.56086 61.2316 0.830034 56.2057 0.143524 50.6181C0.104181 50.2788 0.0728318 49.9385 0.0494717 49.5972C0.026419 49.2563 0.0113616 48.9149 0.00429213 48.5731C-0.00246999 48.2315 -0.00124254 47.8898 0.00797853 47.548C0.017507 47.2064 0.0350263 46.8652 0.0605379 46.5243C0.086357 46.1834 0.120168 45.8434 0.16197 45.5044C0.203773 45.165 0.253719 44.8271 0.311812 44.4905C0.369904 44.1537 0.435835 43.8186 0.509604 43.4852C0.58368 43.1518 0.665596 42.8204 0.755348 42.4911C0.8451 42.1617 0.94253 41.8348 1.04765 41.5101C1.15308 41.1858 1.26619 40.8642 1.38699 40.5452C1.50779 40.2262 1.63596 39.9105 1.77151 39.5981C1.90737 39.2854 2.05045 38.9763 2.20075 38.6708C2.35136 38.3653 2.50904 38.0637 2.67379 37.766C2.83885 37.4683 3.01067 37.175 3.18925 36.8861C3.36814 36.5969 3.55379 36.3122 3.7462 36.0321C3.93862 35.7523 4.13764 35.4773 4.34327 35.2072C7.80993 30.6669 13.195 27.3913 18.9227 27.2188C20.8384 27.161 22.8218 27.5883 24.7223 27.3006C28.201 26.7747 28.2065 21.2821 29.2028 18.5823C29.6774 17.3045 30.2424 16.0698 30.8977 14.8781C31.553 13.6862 32.2914 12.5504 33.113 11.471C38.0864 4.95184 45.1341 1.16022 53.1117 0.131828Z" fill="#D7ECFE"/>
</svg>
