<svg width="71" height="44" viewBox="0 0 71 44" fill="none" xmlns="http://www.w3.org/2000/svg">
<path d="M34.2812 0.0840641C34.824 0.00343939 35.4064 0.0121303 35.9551 0.00253928C43.3922 -0.129338 50.4111 4.88948 53.1186 11.804C53.4849 12.7401 53.7721 13.7576 53.9602 14.7458C54.2718 16.3844 54.1896 19.1418 55.5743 20.2534C57.3283 21.6615 62.6581 19.342 67.4303 24.0296C69.6931 26.2526 70.9924 29.103 70.9993 32.3043C71.0014 32.4919 70.9989 32.6794 70.9915 32.8669C70.9844 33.0543 70.9726 33.2414 70.9561 33.4282C70.9396 33.6151 70.9185 33.8014 70.8927 33.9872C70.8669 34.1731 70.8366 34.3581 70.8017 34.5423C70.7667 34.7267 70.7272 34.9101 70.6832 35.0923C70.6394 35.2745 70.5909 35.4556 70.5377 35.6354C70.4847 35.8152 70.4274 35.9937 70.3657 36.1707C70.3038 36.3477 70.2375 36.5231 70.1669 36.6967C70.0965 36.8701 70.0217 37.0419 69.9425 37.2119C69.8635 37.3818 69.7803 37.5495 69.6928 37.7151C69.6055 37.8808 69.5142 38.0441 69.4188 38.2052C69.3231 38.3662 69.2236 38.5248 69.1203 38.6809C69.0169 38.8369 68.9098 38.9903 68.7989 39.1409C68.688 39.2916 68.5733 39.4394 68.4549 39.5845C68.3366 39.7294 68.2148 39.8711 68.0894 40.0098C67.9642 40.1487 67.8356 40.2843 67.7034 40.4165C67.511 40.6052 67.3125 40.787 67.108 40.962C66.9034 41.1371 66.6932 41.305 66.4774 41.4659C66.2615 41.6267 66.0406 41.7801 65.8147 41.9259C65.5887 42.0718 65.358 42.2099 65.1227 42.3401C64.8875 42.4702 64.648 42.5923 64.4044 42.7064C64.1609 42.8203 63.914 42.9258 63.6637 43.0229C63.4131 43.1202 63.1596 43.2088 62.903 43.2887C62.6467 43.3687 62.3879 43.4399 62.1266 43.5024C58.8531 44.2832 55.0961 43.9119 51.744 43.911L36.8625 43.9068L20.2731 43.9143C17.0823 43.9167 13.5365 44.235 10.408 43.6121C9.93164 43.5172 9.46214 43.3953 8.99949 43.2462C8.53684 43.0973 8.0842 42.9223 7.64159 42.7211C7.19897 42.5199 6.76916 42.2939 6.35214 42.0431C5.93511 41.7923 5.53366 41.5185 5.14779 41.2216C2.29837 39.0462 0.535749 35.8413 0.0926384 32.2782C0.0672441 32.0618 0.0470096 31.8448 0.0319317 31.6272C0.0170523 31.4098 0.00733341 31.1921 0.00277037 30.9741C-0.00159427 30.7563 -0.000802005 30.5384 0.00514978 30.3204C0.0113 30.1027 0.0226079 29.8851 0.0390745 29.6677C0.0557395 29.4503 0.0775631 29.2335 0.104545 29.0173C0.131526 28.8009 0.163764 28.5854 0.20126 28.3708C0.238756 28.156 0.281312 27.9423 0.328926 27.7297C0.376739 27.5171 0.429612 27.3058 0.487543 27.0958C0.545473 26.8858 0.60836 26.6772 0.676211 26.4702C0.744259 26.2634 0.81727 26.0583 0.895239 25.8549C0.973207 25.6515 1.05594 25.4502 1.14343 25.251C1.23112 25.0516 1.32347 24.8545 1.42048 24.6596C1.5177 24.4648 1.61947 24.2725 1.72581 24.0827C1.83235 23.8928 1.94325 23.7058 2.05851 23.5216C2.17398 23.3372 2.29381 23.1556 2.418 22.977C2.5422 22.7986 2.67066 22.6232 2.80338 22.451C5.04096 19.5557 8.5168 17.4669 12.2137 17.3569C13.4502 17.3201 14.7305 17.5925 15.9571 17.4091C18.2024 17.0737 18.206 13.5712 18.8491 11.8496C19.1554 11.0347 19.5201 10.2474 19.943 9.48749C20.366 8.7274 20.8426 8.00317 21.373 7.31482C24.583 3.1577 29.132 0.739852 34.2812 0.0840641Z" fill="#D7ECFE"/>
</svg>
