<svg width="1370" height="304" viewBox="0 0 1370 304" fill="none" xmlns="http://www.w3.org/2000/svg">
<path fill-rule="evenodd" clip-rule="evenodd" d="M14.0842 303.325H611.599C633.545 279.217 646.923 247.173 646.923 212.003C646.923 137.057 586.167 76.3008 511.221 76.3008C491.99 76.3008 473.694 80.3009 457.119 87.5144C423.216 46.8661 372.188 21 315.118 21C251.277 21 194.995 53.3692 161.791 102.591C154.95 101.57 147.948 101.041 140.823 101.041C63.0486 101.041 -0.00012207 164.089 -0.00012207 241.864C-0.00012207 263.9 5.06104 284.753 14.0842 303.325Z" fill="#D7ECFE"/>
<path fill-rule="evenodd" clip-rule="evenodd" d="M304.084 282.325H901.599C923.545 258.217 936.923 226.173 936.923 191.003C936.923 116.057 876.167 55.3008 801.221 55.3008C781.99 55.3008 763.694 59.3009 747.119 66.5144C713.216 25.8661 662.188 0 605.118 0C541.277 0 484.995 32.3692 451.791 81.591C444.95 80.5698 437.948 80.0406 430.823 80.0406C353.049 80.0406 290 143.089 290 220.864C290 242.9 295.061 263.753 304.084 282.325Z" fill="#D7ECFE"/>
<path fill-rule="evenodd" clip-rule="evenodd" d="M737.084 303.325H1334.6C1356.54 279.217 1369.92 247.173 1369.92 212.003C1369.92 137.057 1309.17 76.3008 1234.22 76.3008C1214.99 76.3008 1196.69 80.3009 1180.12 87.5144C1146.22 46.8661 1095.19 21 1038.12 21C974.277 21 917.995 53.3692 884.791 102.591C877.95 101.57 870.948 101.041 863.823 101.041C786.049 101.041 723 164.089 723 241.864C723 263.9 728.061 284.753 737.084 303.325Z" fill="#D7ECFE"/>
</svg>
