<svg width="216" height="117" viewBox="0 0 216 117" fill="none" xmlns="http://www.w3.org/2000/svg">
<rect x="5" y="5" width="206" height="107" rx="11" fill="#05225F" stroke="#79A2F8" stroke-width="10"/>
<path d="M56 69V66H53V63H50V54H53V51H56V48H68V51H71V54H65V51H59V54H56V63H59V66H65V63H71V66H68V69H56Z" fill="#8EB1F9"/>
<path d="M77 69V66H74V51H77V48H92V51H95V66H92V69H77ZM80 66H89V51H80V66Z" fill="#8EB1F9"/>
<path d="M98 69V48H104V51H107V54H110V51H113V48H119V69H113V57H110V63H107V57H104V69H98Z" fill="#8EB1F9"/>
<path d="M122 69V48H143V51H128V57H140V60H128V69H122Z" fill="#8EB1F9"/>
<path d="M155 69V60H152V57H149V48H155V57H161V48H167V57H164V60H161V69H155Z" fill="#8EB1F9"/>
<rect x="23.7798" y="23.7798" width="15.8532" height="15.8532" rx="7.92661" fill="#3673F5"/>
<rect x="176.367" y="23.7798" width="15.8532" height="15.8532" rx="7.92661" fill="#3673F5"/>
<rect x="23.7798" y="76.9174" width="15.8532" height="15.8532" rx="7.92661" fill="#3673F5"/>
<rect x="176.367" y="76.9174" width="15.8532" height="15.8532" rx="7.92661" fill="#3673F5"/>
</svg>
