<svg width="207" height="52" viewBox="0 0 207 52" fill="none" xmlns="http://www.w3.org/2000/svg">
<mask id="mask0_2005_1535" style="mask-type:luminance" maskUnits="userSpaceOnUse" x="0" y="12" width="149" height="28">
<path d="M148.167 12H0V40H148.167V12Z" fill="white"/>
</mask>
<g mask="url(#mask0_2005_1535)">
<path d="M33.7857 22.6204L32.1977 22.8709L31.8137 21.3098C30.7483 16.979 26.8016 13.75 22.0836 13.75C18.3934 13.75 15.1732 15.7247 13.435 18.664L12.7199 19.8733L11.3846 19.4365C10.6625 19.2002 9.88886 19.0716 9.0812 19.0716C5.01856 19.0716 1.75012 22.3339 1.75012 26.3275C1.75012 30.3211 5.01856 33.5833 9.0812 33.5833H9.09478H9.10838H9.12203H9.13571H9.14943H9.16317H9.17695H9.19077H9.20462H9.2185H9.23242H9.24638H9.26035H9.27437H9.28842H9.3025H9.31662H9.33076H9.34493H9.35915H9.37338H9.38765H9.40195H9.41628H9.43064H9.44502H9.45944H9.4739H9.48838H9.50288H9.51741H9.53198H9.54657H9.56119H9.57583H9.59051H9.60521H9.61993H9.63469H9.64946H9.66427H9.6791H9.69395H9.70884H9.72375H9.73868H9.75364H9.76862H9.78363H9.79866H9.81371H9.82879H9.84389H9.85902H9.87416H9.88933H9.90452H9.91973H9.93497H9.95021H9.9655H9.98079H9.99611H10.0115H10.0268H10.0422H10.0576H10.073H10.0884H10.1039H10.1194H10.1349H10.1504H10.1659H10.1815H10.197H10.2126H10.2282H10.2438H10.2595H10.2751H10.2908H10.3065H10.3222H10.3379H10.3536H10.3693H10.3851H10.4009H10.4167H10.4325H10.4483H10.4641H10.4799H10.4958H10.5116H10.5275H10.5434H10.5593H10.5752H10.5912H10.6071H10.6231H10.639H10.655H10.671H10.687H10.7029H10.719H10.735H10.751H10.767H10.7831H10.7991H10.8152H10.8313H10.8473H10.8634H10.8795H10.8956H10.9117H10.9278H10.9439H10.9601H10.9762H10.9923H11.0085H11.0246H11.0408H11.0569H11.0731H11.0892H11.1054H11.1216H11.1377H11.1539H11.1701H11.1863H11.2025H11.2186H11.2348H11.251H11.2672H11.2834H11.2996H11.3158H11.332H11.3481H11.3643H11.3805H11.3967H11.4129H11.4291H11.4453H11.4615H11.4776H11.4938H11.51H11.5262H11.5424H11.5585H11.5747H11.5908H11.607H11.6232H11.6393H11.6555H11.6716H11.6878H11.7039H11.72H11.7361H11.7522H11.7683H11.7844H11.8005H11.8166H11.8327H11.8488H11.8649H11.8809H11.897H11.913H11.9291H11.945H11.961H11.977H11.993H12.009H12.025H12.0409H12.0569H12.0729H12.0888H12.1048H12.1206H12.1365H12.1524H12.1682H12.1841H12.2H12.2158H12.2316H12.2474H12.2632H12.2789H12.2948H12.3106H12.3262H12.3419H12.3577H12.3733H12.3891H12.4047H12.4203H12.436H12.4515H12.4671H12.4828H12.4983H12.5138H12.5293H12.5448H12.5603H12.5757H12.5913H12.6067H12.6221H12.6375H12.6527H12.6681H12.6834H12.6988H12.7141H12.7293H12.7446H12.7598H12.775H12.7902H12.8053H12.8205H12.8356H12.8506H12.8657H12.8807H12.8958H12.9108H12.9257H12.9407H12.9556H12.9704H12.9854H13.0002H13.015H13.0298H13.0445H13.0593H13.074H13.0887H13.1033H13.118H13.1326H13.1472H13.1616H13.1762H13.1907H13.2052H13.2196H13.234H13.2483H13.2627H13.277H13.2913H13.3055H13.3197H13.334H13.3481H13.3622H13.3763H13.3904H13.4044H13.4184H13.4324H13.4463H13.4602H13.4741H13.488H13.5017H13.5155H13.5291H13.5429H13.5566H13.5702H13.5837H13.5973H13.6108H13.6243H13.6378H13.6512H13.6645H13.6779H13.6912H13.7044H13.7176H13.7307H13.7439H13.757H13.7701H13.7831H13.7961H13.809H13.822H13.8348H13.8476H13.8605H13.8732H13.8859H13.8985H13.9112H13.9237H13.9363H13.9488H13.9613H13.9736H13.986H13.9984H14.0106H14.0229H14.035H14.0471H14.0593H14.0714H14.0834H14.0953H14.1072H14.1191H14.131H14.1428H14.1545H14.1661H14.1778H14.1895H14.201H14.2125H14.2239H14.2353H14.2466H14.258H14.2693H14.2805H14.2917H14.3028H14.3138H14.3248H14.3358H14.3467H14.3576H14.3683H14.3792H14.3898H14.4005H14.4111H14.4216H14.4321H14.4426H14.453H14.4633H14.4737H14.4838H14.494H14.5041H14.5143H14.5242H14.5342H14.5441H14.5539H14.5637H14.5735H14.5832H14.5928H14.6024H14.6119H14.6214H14.6307H14.64H14.6494H14.6586H14.6677H14.6768H14.6859H14.6949H14.7039H14.7127H14.7215H14.7302H14.739H14.7476H14.7561H14.7646H14.773H14.7814H14.7898H14.798H14.8063H14.8143H14.8225H14.8304H14.8384H14.8463H14.8541H14.8619H14.8695H14.8772H14.8848H14.8923H14.8997H14.9071H14.9143H14.9216H14.9288H14.9359H14.9429H14.9499H14.9568H14.9637H14.9704H14.9771H14.9837H14.9903H14.9968H15.0032H15.0095H15.0158H15.0221H15.0282H15.0343H15.0403H15.0463H15.0521H15.0579H15.0637H15.0693H15.0749H15.0803H15.0858H15.0912H15.0964H15.1017H15.1068H15.112H15.1169H15.1219H15.1267H15.1314H15.1361H15.1408H15.1453H15.1498H15.1542H15.1585H15.1628H15.1669H15.1711H15.1751H15.179H15.1829H15.1866H15.1904H15.194H15.1976H15.2011H15.2045H15.2077H15.211H15.2142H15.2172H15.2202H15.2231H15.2259H15.2287H15.2314H15.234H15.2366H15.2389H15.2413H15.2436H15.2458H15.2479H15.2499H15.2518H15.2537H15.2555H15.2571H15.2587H15.2602H15.2616H15.263H15.2655H15.2676H15.2693H15.2707H15.2721H15.2733H15.2746H15.2759H15.2776H15.2797H15.2809H15.2822H15.2836H15.285H15.2865H15.2881H15.2899H15.2917H15.2936H15.2957H15.2978H15.2999H15.3022H15.3046H15.307H15.3096H15.3123H15.315H15.3178H15.3207H15.3236H15.3267H15.3299H15.3332H15.3364H15.3399H15.3434H15.347H15.3507H15.3544H15.3582H15.3622H15.3663H15.3704H15.3746H15.3788H15.3832H15.3876H15.3922H15.3967H15.4014H15.4062H15.4111H15.416H15.421H15.4261H15.4313H15.4365H15.4419H15.4474H15.4529H15.4585H15.4641H15.4698H15.4756H15.4816H15.4875H15.4936H15.4998H15.5059H15.5122H15.5185H15.5251H15.5315H15.5381H15.5448H15.5516H15.5584H15.5653H15.5723H15.5793H15.5864H15.5937H15.6009H15.6083H15.6157H15.6232H15.6308H15.6384H15.6461H15.6539H15.6617H15.6696H15.6777H15.6857H15.6939H15.7021H15.7103H15.7187H15.7271H15.7357H15.7442H15.7528H15.7616H15.7703H15.7792H15.788H15.797H15.8061H15.8152H15.8243H15.8337H15.8429H15.8523H15.8618H15.8712H15.8808H15.8905H15.9002H15.91H15.9198H15.9297H15.9396H15.9496H15.9598H15.9699H15.9801H15.9905H16.0007H16.0111H16.0216H16.0321H16.0427H16.0533H16.0641H16.0749H16.0857H16.0966H16.1076H16.1186H16.1296H16.1407H16.1519H16.1632H16.1746H16.1859H16.1973H16.2087H16.2203H16.2318H16.2435H16.2553H16.2671H16.2789H16.2908H16.3027H16.3147H16.3267H16.3388H16.351H16.3631H16.3753H16.3877H16.4001H16.4124H16.4249H16.4375H16.45H16.4627H16.4753H16.488H16.5009H16.5137H16.5265H16.5395H16.5526H16.5655H16.5787H16.5918H16.6049H16.6182H16.6314H16.6448H16.6581H16.6717H16.6851H16.6986H16.7122H16.7258H16.7395H16.7532H16.767H16.7808H16.7946H16.8085H16.8224H16.8364H16.8504H16.8645H16.8786H16.8928H16.907H16.9212H16.9356H16.9498H16.9643H16.9786H16.9931H17.0076H17.0221H17.0367H17.0513H17.066H17.0807H17.0955H17.1102H17.125H17.14H17.1549H17.1698H17.1848H17.1998H17.2149H17.2299H17.2451H17.2603H17.2755H17.2907H17.306H17.3214H17.3367H17.3521H17.3675H17.383H17.3985H17.414H17.4295H17.4452H17.4608H17.4764H17.4922H17.5079H17.5237H17.5394H17.5553H17.5712H17.587H17.603H17.619H17.635H17.651H17.6671H17.6832H17.6993H17.7154H17.7316H17.7478H17.764H17.7802H17.7966H17.8129H17.8292H17.8456H17.862H17.8785H17.8949H17.9114H17.9278H17.9444H17.961H17.9775H17.9942H18.0108H18.0275H18.0441H18.0608H18.0776H18.0943H18.1111H18.1279H18.1448H18.1616H18.1785H18.1955H18.2124H18.2293H18.2462H18.2632H18.2803H18.2973H18.3143H18.3314H18.3484H18.3656H18.3827H18.3999H18.417H18.4342H18.4514H18.4686H18.4858H18.5031H18.5204H18.5376H18.555H18.5723H18.5897H18.6069H18.6243H18.6417H18.6592H18.6766H18.694H18.7115H18.729H18.7464H18.7639H18.7814H18.799H18.8165H18.834H18.8516H18.8691H18.8867H18.9043H18.9219H18.9396H18.9572H18.9748H18.9924H19.01H19.0278H19.0454H19.0631H19.0808H19.0985H19.1162H19.1339H19.1517H19.1694H19.1871H19.2049H19.2227H19.2404H19.2582H19.276H19.2938H19.3116H19.3293H19.3472H19.3649H19.3828H19.4006H19.4185H19.4362H19.4541H19.4719H19.4898H19.5076H19.5255H19.5433H19.5612H19.579H19.5969H19.6147H19.6326H19.6504H19.6683H19.6861H19.704H19.7218H19.7397H19.7575H19.7754H19.7932H19.8111H19.8289H19.8468H19.8646H19.8825H19.9003H19.918H19.9359H19.9537H19.9716H19.9894H20.0072H20.025H20.0429H20.0606H20.0785H20.0962H20.114H20.1318H20.1495H20.1674H20.1851H20.2028H20.2206H20.2383H20.256H20.2738H20.2915H20.3092H20.3268H20.3446H20.3622H20.3799H20.3975H20.4152H20.4329H20.4505H20.4681H20.4856H20.5032H20.5209H20.5384H20.556H20.5735H20.5911H20.6086H20.6261H20.6436H20.661H20.6785H20.696H20.7134H20.7307H20.7482H20.7656H20.7829H20.8003H20.8177H20.8349H20.8523H20.8696H20.8868H20.9041H20.9214H20.9385H20.9558H20.9729H20.9901H21.0072H21.0244H21.0414H21.0586H21.0756H21.0926H21.1097H21.1267H21.1436H21.1607H21.1776H21.1945H21.2114H21.2282H21.2451H21.2619H21.2787H21.2955H21.3123H21.329H21.3457H21.3624H21.3791H21.3957H21.4123H21.4289H21.4454H21.462H21.4785H21.4949H21.5114H21.5278H21.5443H21.5606H21.5769H21.5933H21.6096H21.6258H21.642H21.6582H21.6745H21.6906H21.7067H21.7228H21.7387H21.7548H21.7708H21.7867H21.8027H21.8185H21.8344H21.8503H21.866H21.8818H21.8975H21.9133H21.9289H21.9445H21.9602H21.9757H21.9912H22.0067H22.0222H22.0376H22.053H22.0683H22.0836H22.0995H22.1152H22.1311H22.147H22.1629H22.1789H22.1949H22.211H22.227H22.2432H22.2593H22.2755H22.2917H22.3081H22.3243H22.3406H22.3571H22.3734H22.3899H22.4064H22.4229H22.4394H22.456H22.4727H22.4893H22.5059H22.5227H22.5394H22.5562H22.573H22.5898H22.6067H22.6237H22.6406H22.6576H22.6745H22.6916H22.7086H22.7257H22.7429H22.7599H22.7772H22.7943H22.8116H22.8289H22.8461H22.8634H22.8808H22.8982H22.9156H22.9329H22.9504H22.9678H22.9853H23.0028H23.0204H23.0379H23.0556H23.0732H23.0908H23.1085H23.1261H23.1439H23.1616H23.1793H23.1972H23.2149H23.2328H23.2506H23.2685H23.2863H23.3043H23.3221H23.3401H23.3581H23.376H23.394H23.4121H23.4301H23.4481H23.4662H23.4843H23.5024H23.5206H23.5387H23.5569H23.5751H23.5932H23.6114H23.6297H23.6479H23.6661H23.6844H23.7027H23.7209H23.7392H23.7575H23.7759H23.7943H23.8126H23.8309H23.8494H23.8678H23.8861H23.9045H23.923H23.9414H23.9598H23.9784H23.9968H24.0153H24.0338H24.0522H24.0708H24.0893H24.1078H24.1263H24.1449H24.1634H24.182H24.2005H24.2191H24.2376H24.2563H24.2748H24.2934H24.3121H24.3306H24.3492H24.3678H24.3864H24.405H24.4236H24.4423H24.4609H24.4795H24.4981H24.5168H24.5354H24.554H24.5727H24.5914H24.6099H24.6286H24.6472H24.6659H24.6845H24.7031H24.7218H24.7405H24.759H24.7777H24.7963H24.8149H24.8336H24.8521H24.8708H24.8894H24.908H24.9267H24.9452H24.9638H24.9824H25.001H25.0195H25.0382H25.0567H25.0753H25.0938H25.1124H25.1309H25.1495H25.168H25.1865H25.205H25.2236H25.242H25.2606H25.279H25.2974H25.316H25.3344H25.3528H25.3713H25.3897H25.408H25.4265H25.4449H25.4632H25.4815H25.5H25.5183H25.5366H25.5549H25.5731H25.5914H25.6097H25.6279H25.6461H25.6645H25.6827H25.7007H25.7189H25.7371H25.7552H25.7734H25.7915H25.8096H25.8277H25.8458H25.8637H25.8818H25.8998H25.9177H25.9357H25.9537H25.9715H25.9895H26.0073H26.0252H26.043H26.0609H26.0786H26.0965H26.1142H26.1319H26.1497H26.1673H26.185H26.2026H26.2203H26.2379H26.2554H26.273H26.2905H26.308H26.3255H26.3429H26.3603H26.3776H26.395H26.4124H26.4297H26.4469H26.4642H26.4815H26.4987H26.5159H26.533H26.5501H26.5672H26.5843H26.6013H26.6183H26.6352H26.6522H26.6691H26.686H26.7028H26.7196H26.7364H26.7532H26.7699H26.7866H26.8032H26.8198H26.8364H26.8529H26.8695H26.886H26.9024H26.9189H26.9352H26.9515H26.9679H26.9841H27.0003H27.0165H27.0327H27.0488H27.0649H27.0809H27.097H27.1129H27.1289H27.1447H27.1606H27.1765H27.1922H27.208H27.2236H27.2393H27.2549H27.2705H27.286H27.3015H27.3169H27.3323H27.3477H27.363H27.3783H27.3936H27.4087H27.4239H27.439H27.454H27.4691H27.484H27.4989H27.5139H27.5287H27.5435H27.5582H27.5729H27.5876H27.6022H27.6168H27.6312H27.6457H27.6602H27.6745H27.6887H27.7031H27.7172H27.7314H27.7456H27.7596H27.7737H27.7876H27.8016H27.8153H27.8292H27.843H27.8566H27.8703H27.8839H27.8975H27.911H27.9244H27.9378H27.9511H27.9644H27.9776H27.9908H28.004H28.017H28.03H28.0429H28.0559H28.0687H28.0814H28.0942H28.1069H28.1195H28.132H28.1446H28.1569H28.1693H28.1817H28.1939H28.206H28.2182H28.2303H28.2423H28.2543H28.2662H28.278H28.2898H28.3015H28.3131H28.3247H28.3362H28.3478H28.3591H28.3704H28.3817H28.3929H28.4041H28.4152H28.4262H28.4372H28.448H28.4589H28.4696H28.4803H28.4909H28.5014H28.5119H28.5224H28.5327H28.5431H28.5532H28.5634H28.5735H28.5835H28.5935H28.6033H28.6131H28.6229H28.6326H28.6421H28.6516H28.661H28.6705H28.6798H28.689H28.6981H28.7072H28.7163H28.7252H28.7341H28.7429H28.7517H28.7603H28.7688H28.7774H28.7858H28.7942H28.8024H28.8106H28.8188H28.8268H28.8348H28.8427H28.8505H28.8582H28.8659H28.8735H28.881H28.8884H28.8958H28.903H28.9102H28.9174H28.9244H28.9314H28.9382H28.945H28.9517H28.9583H28.9648H28.9714H28.9777H28.984H28.9903H28.9963H29.0024H29.0084H29.0143H29.02H29.0257H29.0315H29.0369H29.0424H29.0478H29.053H29.0583H29.0634H29.0684H29.0733H29.0782H29.083H29.0877H29.0922H29.0968H29.1012H29.1055H29.1097H29.1139H29.118H29.122H29.1258H29.1297H29.1333H29.1369H29.1404H29.1439H29.1472H29.1505H29.1536H29.1566H29.1597H29.1625H29.1653H29.168H29.1705H29.1731H29.1754H29.1778H29.18H29.1821H29.1842H29.186H29.1879H29.1897H29.1913H29.1928H29.1942H29.1956H29.1979H29.1999H29.2016H29.2028H29.2714H29.2746H29.2777H29.281H29.2843H29.2877H29.291H29.2947H29.2982H29.3018H29.3055H29.3092H29.3131H29.3171H29.321H29.325H29.3291H29.3333H29.3375H29.3418H29.3461H29.3505H29.355H29.3595H29.3641H29.3687H29.3735H29.3783H29.3831H29.388H29.393H29.398H29.4032H29.4083H29.4134H29.4188H29.424H29.4295H29.4349H29.4405H29.446H29.4517H29.4573H29.4631H29.4688H29.4748H29.4806H29.4867H29.4926H29.4988H29.505H29.5112H29.5174H29.5238H29.5301H29.5366H29.543H29.5496H29.5562H29.5629H29.5696H29.5764H29.5832H29.5901H29.5971H29.6041H29.6111H29.6182H29.6253H29.6325H29.6398H29.6471H29.6545H29.6619H29.6694H29.6769H29.6844H29.6921H29.6998H29.7075H29.7154H29.7232H29.731H29.7389H29.747H29.755H29.7631H29.7712H29.7794H29.7877H29.796H29.8043H29.8127H29.8211H29.8296H29.8381H29.8467H29.8554H29.864H29.8727H29.8815H29.8904H29.8992H29.9081H29.9171H29.9261H29.9352H29.9441H29.9534H29.9626H29.9718H29.981H29.9903H29.9998H30.0091H30.0186H30.0281H30.0377H30.0473H30.0568H30.0665H30.0763H30.086H30.0958H30.1057H30.1156H30.1256H30.1355H30.1455H30.1555H30.1657H30.1758H30.186H30.1963H30.2065H30.2168H30.2272H30.2376H30.2479H30.2584H30.2689H30.2794H30.2901H30.3007H30.3114H30.322H30.3328H30.3436H30.3543H30.3652H30.3762H30.387H30.398H30.4091H30.42H30.4311H30.4422H30.4534H30.4646H30.4758H30.487H30.4983H30.5096H30.5211H30.5324H30.5438H30.5552H30.5668H30.5783H30.5899H30.6014H30.6131H30.6248H30.6364H30.6482H30.66H30.6718H30.6836H30.6955H30.7074H30.7193H30.7312H30.7432H30.7552H30.7672H30.7794H30.7914H30.8035H30.8158H30.8279H30.8401H30.8524H30.8646H30.877H30.8894H30.9017H30.9141H30.9265H30.939H30.9514H30.9639H30.9765H30.9891H31.0016H31.0143H31.0269H31.0396H31.0522H31.065H31.0778H31.0905H31.1033H31.1162H31.129H31.1418H31.1548H31.1677H31.1806H31.1936H31.2066H31.2197H31.2326H31.2457H31.2587H31.2719H31.285H31.2982H31.3114H31.3245H31.3378H31.351H31.3643H31.3776H31.3909H31.4042H31.4175H31.4309H31.4444H31.4577H31.4711H31.4846H31.498H31.5116H31.525H31.5385H31.552H31.5657H31.5792H31.5929H31.6064H31.6201H31.6337H31.6474H31.661H31.6748H31.6884H31.7022H31.716H31.7297H31.7435H31.7573H31.771H31.7849H31.7988H31.8126H31.8264H31.8403H31.8542H31.8682H31.8821H31.896H31.91H31.924H31.9379H31.9519H31.9659H31.98H31.994H32.008H32.0221H32.0361H32.0502H32.0642H32.0783H32.0924H32.1066H32.1207H32.1349H32.149H32.1631H32.1774H32.1915H32.2057H32.2198H32.2341H32.2483H32.2625H32.2768H32.291H32.3052H32.3195H32.3337H32.3481H32.3623H32.3765H32.3909H32.4051H32.4195H32.4337H32.448H32.4624H32.4767H32.491H32.5053H32.5197H32.534H32.5484H32.5627H32.5771H32.5914H32.6058H32.6201H32.6345H32.6489H32.6633H32.6776H32.692H32.7065H32.7208H32.7352H32.7495H32.764H32.7783H32.7927H32.8071H32.8215H32.8358H32.8503H32.8647H32.879H32.8935H32.9078H32.9223H32.9366H32.951H32.9653H32.9798H32.9942H33.0085H33.023H33.0373H33.0517H33.066H33.0804H33.0947H33.1091H33.1235H33.1379H33.1522H33.1666H33.1808H33.1952H33.2095H33.2239H33.2382H33.2525H33.2668H33.2812H33.2954H33.3097H33.324H33.3383H33.3526H33.3668H33.381H33.3954H33.4096H33.4238H33.4381H33.4522H33.4664H33.4807H33.4949H33.509H33.5232H33.5374H33.5515H33.5657H33.5798H33.5939H33.6081H33.6222H33.6363H33.6503H33.6644H33.6785H33.6925H33.7065H33.7205H33.7346H33.7486H33.7625H33.7765H33.7905H33.8045H33.8184H33.8323H33.8463H33.8602H33.8741H33.8878H33.9017H33.9156H33.9294H33.9432H33.957H33.9708H33.9845H33.9983H34.012H34.0257H34.0394H34.053H34.0667H34.0803H34.094H34.1076H34.1212H34.1348H34.1483H34.1619H34.1754H34.1889H34.2024H34.2158H34.2293H34.2427H34.2561H34.2694H34.2829H34.2962H34.3095H34.3228H34.3361H34.3494H34.3625H34.3758H34.389H34.4022H34.4153H34.4285H34.4415H34.4546H34.4677H34.4807H34.4937H34.5067H34.5197H34.5326H34.5456H34.5584H34.5713H34.5841H34.5969H34.6098H34.6225H34.6353H34.648H34.6606H34.6733C37.7671 33.5833 40.2501 31.1001 40.2501 28.0672C40.2501 25.0345 37.7671 22.5512 34.6733 22.5512M33.7857 22.6204C34.0738 22.5749 34.3701 22.5512 34.6733 22.5512M33.7857 22.6204L34.6733 22.5512" stroke="#3673F5" stroke-width="1.46118"/>
<path d="M61.7692 34.4C55.277 34.4 51.3331 30.1963 51.3331 23.2C51.3331 16.2188 55.3529 12 61.6479 12C65.7434 12 68.9136 13.8016 70.4154 16.9244C70.7187 17.4949 70.8704 18.0804 70.8704 18.6209C70.8704 19.807 70.0665 20.5727 68.853 20.5727C67.8215 20.5727 67.1692 20.1223 66.6687 19.0713C65.6675 16.8643 63.8776 15.7534 61.6934 15.7534C58.2349 15.7534 56.005 18.6209 56.005 23.185C56.005 27.8092 58.2046 30.6617 61.7085 30.6617C64.0142 30.6617 65.7434 29.6258 66.7294 27.4488C67.1996 26.4279 67.776 26.0225 68.7468 26.0225C70.0361 26.0225 70.8855 26.8332 70.8855 28.0343C70.8855 28.5447 70.7642 29.0252 70.5367 29.5506C69.1715 32.5534 65.9103 34.4 61.7692 34.4Z" fill="#3673F5"/>
<path d="M82.1781 34.385C77.2634 34.385 74.1234 31.2623 74.1234 25.9775C74.1234 20.7679 77.3089 17.6001 82.1781 17.6001C87.0472 17.6001 90.2326 20.7529 90.2326 25.9775C90.2326 31.2772 87.0927 34.385 82.1781 34.385ZM82.1781 31.037C84.3472 31.037 85.7275 29.2204 85.7275 25.9925C85.7275 22.7947 84.332 20.9481 82.1781 20.9481C80.0241 20.9481 78.6134 22.7947 78.6134 25.9925C78.6134 29.2204 79.9937 31.037 82.1781 31.037Z" fill="#3673F5"/>
<path d="M95.6699 34.3551C94.3503 34.3551 93.4553 33.5594 93.4553 32.0731V19.8521C93.4553 18.3808 94.3351 17.6151 95.5941 17.6151C96.8531 17.6151 97.7329 18.3808 97.7329 19.8521V20.858H97.8239C98.5065 18.9213 100.251 17.6452 102.465 17.6452C104.817 17.6452 106.455 18.8462 107.001 20.9481H107.092C107.82 18.9213 109.762 17.6452 112.143 17.6452C115.329 17.6452 117.467 19.8071 117.467 23.05V32.0731C117.467 33.5594 116.557 34.3551 115.238 34.3551C113.933 34.3551 113.038 33.5594 113.038 32.0731V24.1459C113.038 22.2843 112.098 21.2634 110.384 21.2634C108.7 21.2634 107.593 22.4795 107.593 24.2661V32.0731C107.593 33.5594 106.773 34.3551 105.454 34.3551C104.149 34.3551 103.33 33.5594 103.33 32.0731V24.0108C103.33 22.2843 102.344 21.2634 100.706 21.2634C99.0222 21.2634 97.8846 22.5245 97.8846 24.3261V32.0731C97.8846 33.5594 96.9745 34.3551 95.6699 34.3551Z" fill="#3673F5"/>
<path d="M124.604 34.355C123.283 34.355 122.388 33.5893 122.388 32.073V21.2483H121.539C120.614 21.2483 119.916 20.6628 119.916 19.6269C119.916 18.606 120.614 18.0205 121.539 18.0205H122.388V16.8044C122.388 13.6215 123.967 12.2103 127.03 12.1802C129.381 12.1802 130.367 12.9159 130.367 13.9518C130.367 14.5674 130.064 14.9277 129.472 15.1079C129.23 15.1679 128.957 15.213 128.623 15.228C127.258 15.273 126.712 15.8135 126.712 16.9995V18.0205H128.577C129.503 18.0205 130.2 18.606 130.2 19.6269C130.2 20.6628 129.503 21.2483 128.577 21.2483H126.818V32.073C126.818 33.5893 125.908 34.355 124.604 34.355Z" fill="#3673F5"/>
<path d="M135.971 40.0001C134.029 40.0001 132.982 39.2644 132.982 37.9433C132.982 37.0575 133.604 36.502 134.605 36.502C134.909 36.502 135.075 36.517 135.38 36.517C136.153 36.517 136.988 36.1867 137.518 35.0607L137.746 34.4902L132.558 20.9481C132.391 20.4977 132.3 20.0173 132.3 19.657C132.3 18.4709 133.286 17.6151 134.59 17.6151C135.759 17.6151 136.366 18.1106 136.73 19.3867L140.264 30.5267H140.339L143.874 19.3567C144.238 18.1406 144.875 17.6151 146.013 17.6151C147.287 17.6151 148.167 18.4409 148.167 19.5969C148.167 19.9572 148.076 20.4677 147.924 20.8881L142.933 34.31C141.416 38.4687 139.536 40.0001 135.971 40.0001Z" fill="#3673F5"/>
</g>
</svg>
