<svg width="21" height="20" viewBox="0 0 21 20" fill="none" xmlns="http://www.w3.org/2000/svg">
<path d="M16.9749 6.025L16.9833 6.01667L13.8833 2.91667L12.9999 3.8L14.7583 5.55833C13.9749 5.85833 13.4166 6.60833 13.4166 7.5C13.4166 7.77359 13.4705 8.0445 13.5752 8.29726C13.6799 8.55002 13.8333 8.77968 14.0268 8.97314C14.4175 9.36384 14.9474 9.58333 15.4999 9.58333C15.7999 9.58333 16.0749 9.51667 16.3333 9.40833V15.4167C16.3333 15.875 15.9583 16.25 15.4999 16.25C15.0416 16.25 14.6666 15.875 14.6666 15.4167V11.6667C14.6666 10.75 13.9166 10 12.9999 10H12.1666V4.16667C12.1666 3.25 11.4166 2.5 10.4999 2.5H5.49992C4.58325 2.5 3.83325 3.25 3.83325 4.16667V17.5H12.1666V11.25H13.4166V15.4167C13.4166 15.9692 13.6361 16.4991 14.0268 16.8898C14.4175 17.2805 14.9474 17.5 15.4999 17.5C16.0525 17.5 16.5824 17.2805 16.9731 16.8898C17.3638 16.4991 17.5833 15.9692 17.5833 15.4167V7.5C17.5833 6.925 17.3499 6.4 16.9749 6.025ZM10.4999 11.25V15.8333H5.49992V10H10.4999V11.25ZM10.4999 8.33333H5.49992V4.16667H10.4999V8.33333ZM15.4999 8.33333C15.0416 8.33333 14.6666 7.95833 14.6666 7.5C14.6666 7.04167 15.0416 6.66667 15.4999 6.66667C15.9583 6.66667 16.3333 7.04167 16.3333 7.5C16.3333 7.95833 15.9583 8.33333 15.4999 8.33333Z" fill="#7A7A7A"/>
</svg>
