<svg width="44" height="44" viewBox="0 0 44 44" fill="none" xmlns="http://www.w3.org/2000/svg">
<g clip-path="url(#clip0_2045_1436)">
<path d="M22 44C34.1917 44 44 34.1917 44 22C44 9.80826 34.1917 0 22 0C9.80826 0 0 9.80826 0 22C0 34.1917 9.80826 44 22 44Z" fill="#2775CA"/>
<path d="M28.0501 25.4833C28.0501 22.2751 26.1251 21.1751 22.2751 20.7168C19.5251 20.3501 18.9751 19.6168 18.9751 18.3334C18.9751 17.0499 19.8918 16.2251 21.7251 16.2251C23.3751 16.2251 24.2918 16.7751 24.7501 18.1501C24.8418 18.4251 25.1168 18.6084 25.3918 18.6084H26.8584C27.2251 18.6084 27.5001 18.3333 27.5001 17.9668V17.8751C27.1334 15.8583 25.4834 14.3001 23.3751 14.1168V11.9168C23.3751 11.5501 23.1001 11.2751 22.6418 11.1833H21.2668C20.9001 11.1833 20.6251 11.4583 20.5334 11.9168V14.0251C17.7834 14.3918 16.0418 16.2251 16.0418 18.5168C16.0418 21.5418 17.8751 22.7334 21.7251 23.1918C24.2918 23.6501 25.1168 24.2001 25.1168 25.6668C25.1168 27.1336 23.8334 28.1418 22.0918 28.1418C19.7084 28.1418 18.8834 27.1333 18.6084 25.7583C18.5168 25.3918 18.2418 25.2083 17.9668 25.2083H16.4084C16.0418 25.2083 15.7668 25.4834 15.7668 25.8501V25.9418C16.1334 28.2334 17.6001 29.8834 20.6251 30.3418V32.5418C20.6251 32.9084 20.9001 33.1834 21.3584 33.2751H22.7334C23.1001 33.2751 23.3751 33.0001 23.4668 32.5418V30.3418C26.2168 29.8834 28.0501 27.9583 28.0501 25.4833Z" fill="white"/>
<path d="M17.3251 35.1083C10.1751 32.5417 6.50834 24.5667 9.16682 17.5083C10.5418 13.6583 13.5668 10.725 17.3251 9.35001C17.6918 9.16675 17.8751 8.89175 17.8751 8.43327V7.15001C17.8751 6.78327 17.6918 6.50827 17.3251 6.41675C17.2333 6.41675 17.0501 6.41675 16.9583 6.50827C8.25008 9.25827 3.48334 18.5167 6.23334 27.225C7.88334 32.3583 11.8251 36.3 16.9583 37.95C17.3251 38.1333 17.6918 37.95 17.7833 37.5833C17.8751 37.4917 17.8751 37.4 17.8751 37.2167V35.9333C17.8751 35.6583 17.6001 35.2917 17.3251 35.1083ZM27.0418 6.50827C26.6751 6.32501 26.3083 6.50827 26.2168 6.87501C26.1251 6.96675 26.1251 7.05827 26.1251 7.24175V8.52501C26.1251 8.89175 26.4001 9.25827 26.6751 9.44175C33.8251 12.0083 37.4918 19.9833 34.8333 27.0417C33.4583 30.8917 30.4333 33.825 26.6751 35.2C26.3083 35.3833 26.1251 35.6583 26.1251 36.1167V37.4C26.1251 37.7667 26.3083 38.0417 26.6751 38.1333C26.7668 38.1333 26.9501 38.1333 27.0418 38.0417C35.7501 35.2917 40.5168 26.0333 37.7668 17.325C36.1168 12.1 32.0833 8.15827 27.0418 6.50827Z" fill="white"/>
<g clip-path="url(#clip1_2045_1436)">
<path fill-rule="evenodd" clip-rule="evenodd" d="M44 36C44 40.4183 40.412 44 35.9861 44C31.7869 44 28.3421 40.7761 28 36.6724H38.5926V35.3275H28C28.3421 31.2239 31.7869 28 35.9861 28C40.412 28 44 31.5817 44 36Z" fill="#0052FF"/>
</g>
</g>
<defs>
<clipPath id="clip0_2045_1436">
<rect width="44" height="44" fill="white"/>
</clipPath>
<clipPath id="clip1_2045_1436">
<rect width="16" height="16" fill="white" transform="translate(28 28)"/>
</clipPath>
</defs>
</svg>
