<svg width="720" height="774" viewBox="0 0 720 774" fill="none" xmlns="http://www.w3.org/2000/svg">
<g clip-path="url(#clip0_166_5928)">
<rect width="720" height="774" fill="#B0DBFF"/>
<circle cx="355.902" cy="355.624" r="140.666" fill="#8CCAFF" stroke="#3673F5" stroke-width="4"/>
<path d="M355.902 218.691V304.065" stroke="#3673F5"/>
<path d="M383.077 221.367L366.421 305.101" stroke="#3673F5"/>
<path d="M409.208 229.294L376.537 308.17" stroke="#3673F5"/>
<path d="M433.291 242.166L385.859 313.153" stroke="#3673F5"/>
<path d="M454.398 259.489L394.03 319.858" stroke="#3673F5"/>
<path d="M471.721 280.598L400.735 328.029" stroke="#3673F5"/>
<path d="M484.594 304.68L405.718 337.351" stroke="#3673F5"/>
<path d="M492.521 330.811L408.787 347.467" stroke="#3673F5"/>
<path d="M495.197 357.986H409.822" stroke="#3673F5"/>
<path d="M492.521 385.161L408.787 368.505" stroke="#3673F5"/>
<path d="M484.594 411.292L405.718 378.621" stroke="#3673F5" stroke-width="2"/>
<path d="M471.722 435.374L400.736 387.943" stroke="#3673F5" stroke-width="2"/>
<path d="M454.399 456.483L394.03 396.114" stroke="#3673F5" stroke-width="2"/>
<path d="M433.29 473.806L385.858 402.819" stroke="#3673F5" stroke-width="2"/>
<path d="M409.208 486.678L376.536 407.802" stroke="#3673F5" stroke-width="2"/>
<path d="M383.076 494.605L366.421 410.871" stroke="#3673F5" stroke-width="2"/>
<path d="M355.902 497.281V411.907" stroke="#3673F5" stroke-width="2"/>
<path d="M328.727 494.605L345.382 410.871" stroke="#3673F5" stroke-width="2"/>
<path d="M302.596 486.678L335.267 407.802" stroke="#3673F5" stroke-width="2"/>
<path d="M278.513 473.806L325.945 402.819" stroke="#3673F5" stroke-width="2"/>
<path d="M257.406 456.483L317.774 396.114" stroke="#3673F5" stroke-width="2"/>
<path d="M240.082 435.374L311.069 387.943" stroke="#3673F5" stroke-width="2"/>
<path d="M227.21 411.292L306.086 378.621" stroke="#3673F5" stroke-width="2"/>
<path d="M219.283 385.161L303.017 368.506" stroke="#3673F5"/>
<path d="M216.606 357.986H301.981" stroke="#3673F5"/>
<path d="M219.283 330.811L303.017 347.467" stroke="#3673F5"/>
<path d="M227.21 304.68L306.086 337.351" stroke="#3673F5"/>
<path d="M240.082 280.598L311.069 328.029" stroke="#3673F5"/>
<path d="M257.405 259.489L317.774 319.858" stroke="#3673F5"/>
<path d="M278.514 242.166L325.945 313.153" stroke="#3673F5"/>
<path d="M302.596 229.294L335.267 308.17" stroke="#3673F5"/>
<path d="M328.727 221.367L345.383 305.101" stroke="#3673F5"/>
<circle cx="354.96" cy="341.429" r="140.666" fill="white" stroke="#3673F5" stroke-width="4"/>
<circle cx="355.67" cy="342.138" r="121.502" fill="#DFF0FF" stroke="#3673F5" stroke-width="4"/>
<mask id="mask0_166_5928" style="mask-type:alpha" maskUnits="userSpaceOnUse" x="119" y="259" width="458" height="251">
<path fill-rule="evenodd" clip-rule="evenodd" d="M402.2 461.599C388.386 469.407 372.658 473.825 355.97 473.825C337.1 473.825 319.457 468.176 304.42 458.364C285.29 480.99 256.075 495.451 223.338 495.451C165.714 495.451 119 450.644 119 395.372C119 340.1 165.714 295.293 223.338 295.293C241.343 295.293 258.282 299.667 273.064 307.368C290.908 278.554 321.379 259.57 355.97 259.57C392.032 259.57 423.616 280.203 441.083 311.095C453.385 304.605 467.158 300.971 481.699 300.971C533.835 300.971 576.1 347.685 576.1 405.309C576.1 462.933 533.835 509.647 481.699 509.647C448.319 509.647 418.986 490.499 402.2 461.599Z" fill="#8CCAFF"/>
</mask>
<g mask="url(#mask0_166_5928)">
<circle cx="355.669" cy="342.128" r="121.502" fill="#B0DBFF" stroke="#3673F5" stroke-width="4"/>
</g>
<path d="M296.446 327.943C302.486 336.513 319.743 348.511 340.452 327.943" stroke="#3673F5" stroke-width="8" stroke-linecap="round"/>
<path d="M341.871 359.173C345.573 364.529 356.15 372.028 368.843 359.173" stroke="#3673F5" stroke-width="8" stroke-linecap="round"/>
<path d="M366.004 327.943C372.044 336.513 389.301 348.511 410.01 327.943" stroke="#3673F5" stroke-width="8" stroke-linecap="round"/>
<path d="M165.136 171.791L174.499 187.27L189.978 196.633L174.499 205.996L165.136 221.475L155.773 205.996L140.293 196.633L155.773 187.27L165.136 171.791Z" fill="#3673F5"/>
<path d="M202.045 205.86L208.732 216.917L219.789 223.605L208.732 230.293L202.045 241.35L195.357 230.293L184.3 223.605L195.357 216.917L202.045 205.86Z" fill="#3673F5"/>
<path d="M581.777 396.082L588.733 407.581L600.232 414.536L588.733 421.491L581.777 432.991L574.822 421.491L563.323 414.536L574.822 407.581L581.777 396.082Z" fill="#3673F5"/>
<path d="M184.43 457.786L194.069 473.723L210.007 483.363L194.069 493.003L184.43 508.94L174.79 493.003L158.853 483.363L174.79 473.723L184.43 457.786Z" fill="#3673F5"/>
<path d="M508.603 467.303L519.588 485.279L537.749 496.152L519.588 507.024L508.603 525L497.618 507.024L479.457 496.152L497.618 485.279L508.603 467.303Z" fill="#3673F5"/>
<path d="M524.068 158L532.811 172.455L547.266 181.198L532.811 189.941L524.068 204.395L515.325 189.941L500.871 181.198L515.325 172.455L524.068 158Z" fill="#3673F5"/>
<path fill-rule="evenodd" clip-rule="evenodd" d="M1313.84 922.325H716.325C694.379 898.217 681 866.173 681 831.003C681 756.057 741.756 695.301 816.703 695.301C835.933 695.301 854.229 699.301 870.805 706.514C904.707 665.866 955.735 640 1012.8 640C1076.65 640 1132.93 672.369 1166.13 721.591C1172.97 720.57 1179.97 720.041 1187.1 720.041C1264.87 720.041 1327.92 783.089 1327.92 860.864C1327.92 882.9 1322.86 903.753 1313.84 922.325Z" fill="#3673F5"/>
<path fill-rule="evenodd" clip-rule="evenodd" d="M1023.84 901.325H426.325C404.379 877.217 391 845.173 391 810.003C391 735.057 451.756 674.301 526.703 674.301C545.933 674.301 564.229 678.301 580.805 685.514C614.707 644.866 665.735 619 722.805 619C786.647 619 842.928 651.369 876.132 700.591C882.973 699.57 889.975 699.041 897.1 699.041C974.875 699.041 1037.92 762.089 1037.92 839.864C1037.92 861.9 1032.86 882.753 1023.84 901.325Z" fill="#3673F5"/>
<path fill-rule="evenodd" clip-rule="evenodd" d="M590.839 922.325H-6.67544C-28.6212 898.217 -42 866.173 -42 831.003C-42 756.057 18.7561 695.301 93.7026 695.301C112.933 695.301 131.229 699.301 147.805 706.514C181.707 665.866 232.735 640 289.805 640C353.647 640 409.928 672.369 443.132 721.591C449.973 720.57 456.975 720.041 464.1 720.041C541.875 720.041 604.923 783.089 604.923 860.864C604.923 882.9 599.862 903.753 590.839 922.325Z" fill="#3673F5"/>
</g>
<defs>
<clipPath id="clip0_166_5928">
<rect width="720" height="774" fill="white"/>
</clipPath>
</defs>
</svg>
