<svg width="315" height="229" viewBox="0 0 315 229" fill="none" xmlns="http://www.w3.org/2000/svg">
<rect x="5" y="5" width="305.001" height="218.304" rx="19" fill="#05225F" stroke="#79A2F8" stroke-width="10"/>
<rect x="34.679" y="34.679" width="23.1193" height="23.1193" rx="11.5596" fill="#3673F5"/>
<rect x="257.203" y="34.6791" width="23.1193" height="23.1193" rx="11.5596" fill="#3673F5"/>
<rect x="34.6792" y="170.505" width="23.1193" height="23.1193" rx="11.5596" fill="#3673F5"/>
<rect x="257.203" y="170.505" width="23.1193" height="23.1193" rx="11.5596" fill="#3673F5"/>
<path d="M69.3579 142.265V116.256H95.1781V119.971H76.7351V127.403H91.4895V131.118H76.7351V138.549H95.1781V142.265H69.3579Z" fill="#79A2F8"/>
<path d="M99.1618 142.265V116.256H121.293V119.971H124.982V131.118H117.605V134.834H121.293V138.549H124.982V142.265H113.916V138.549H110.228V134.834H106.539V142.265H99.1618ZM106.539 131.118H113.916V127.403H117.605V119.971H106.539V131.118Z" fill="#79A2F8"/>
<path d="M136.343 142.265V138.549H132.654V134.834H128.966V123.687H132.654V119.971H136.343V116.256H151.097V119.971H154.786V123.687H147.409V119.971H140.031V123.687H136.343V134.834H140.031V138.549H147.409V134.834H154.786V138.549H151.097V142.265H136.343Z" fill="#79A2F8"/>
<path d="M162.458 131.118V127.403H184.59V131.118H162.458Z" fill="#79A2F8"/>
<path d="M188.573 142.265V134.834H192.262V131.118H195.951V127.403H203.328V123.687H207.016V119.971H195.951V123.687H188.573V119.971H192.262V116.256H210.705V119.971H214.394V127.403H210.705V131.118H207.016V134.834H199.639V138.549H214.394V142.265H188.573Z" fill="#79A2F8"/>
<path d="M225.754 142.265V138.549H222.066V134.834H218.377V123.687H222.066V119.971H225.754V116.256H236.82V119.971H240.509V123.687H244.197V134.834H240.509V138.549H236.82V142.265H225.754ZM229.443 138.549H236.82V123.687H233.132V119.971H225.754V134.834H229.443V138.549Z" fill="#79A2F8"/>
<path d="M73.3735 104.037V101.973H71.3657V99.9087H69.3579V93.7161H71.3657V91.6519H73.3735V89.5876H81.4047V91.6519H83.4125V93.7161H79.3969V91.6519H75.3813V93.7161H73.3735V99.9087H75.3813V101.973H79.3969V99.9087H83.4125V101.973H81.4047V104.037H73.3735Z" fill="#3FF480"/>
<path d="M87.5887 104.037V101.973H85.5809V95.7803H87.5887V93.7161H97.6277V95.7803H99.6355V101.973H97.6277V104.037H87.5887ZM89.5965 101.973H95.6199V95.7803H89.5965V101.973Z" fill="#3FF480"/>
<path d="M101.804 104.037V93.7161H113.851V95.7803H115.858V104.037H111.843V95.7803H105.819V104.037H101.804Z" fill="#3FF480"/>
<path d="M120.035 104.037V95.7803H118.027V93.7161H120.035V91.6519H122.042V89.5876H128.066V91.6519H124.05V93.7161H132.081V104.037H128.066V95.7803H124.05V104.037H120.035Z" fill="#3FF480"/>
<path d="M136.258 104.037V101.973H134.25V95.7803H136.258V93.7161H144.289V89.5876H148.304V104.037H136.258ZM138.265 101.973H144.289V95.7803H138.265V101.973Z" fill="#3FF480"/>
<path d="M152.481 104.037V101.973H150.473V95.7803H152.481V93.7161H162.52V95.7803H164.527V99.9087H154.488V101.973H162.52V104.037H152.481ZM154.488 97.8445H160.512V95.7803H154.488V97.8445Z" fill="#3FF480"/>
<path d="M166.696 104.037V93.7161H178.743V95.7803H180.75V104.037H176.735V95.7803H170.711V104.037H166.696Z" fill="#3FF480"/>
<path d="M188.942 104.037V95.7803H184.927V93.7161H188.942V89.5876H192.958V93.7161H196.973V95.7803H192.958V104.037H188.942Z" fill="#3FF480"/>
<path d="M205.165 91.6519V89.5876H209.181V91.6519H205.165ZM201.15 104.037V101.973H205.165V95.7803H203.157V93.7161H209.181V101.973H213.196V104.037H201.15Z" fill="#3FF480"/>
<path d="M217.373 104.037V101.973H215.365V99.9087H217.373V97.8445H225.404V95.7803H217.373V93.7161H227.412V95.7803H229.419V104.037H217.373ZM219.38 101.973H225.404V99.9087H219.38V101.973Z" fill="#3FF480"/>
<path d="M233.596 104.037V101.973H237.611V91.6519H235.603V89.5876H241.627V101.973H245.642V104.037H233.596Z" fill="#3FF480"/>
</svg>
