<svg width="417" height="271" viewBox="0 0 417 271" fill="none" xmlns="http://www.w3.org/2000/svg">
<rect x="4" y="4" width="306.633" height="220.037" rx="20" fill="#B0DBFF" stroke="#3673F5" stroke-width="8"/>
<rect x="32" y="32" width="16" height="16" rx="8" fill="#3673F5"/>
<rect x="266" y="32" width="16" height="16" rx="8" fill="#3673F5"/>
<rect x="32" y="180" width="16" height="16" rx="8" fill="#3673F5"/>
<path d="M90.2661 98C84.5332 98 81 94.0459 81 87.5768C81 81.1497 84.5882 77.1677 90.1974 77.1677C93.8681 77.1677 96.7689 78.9142 98.0749 81.8623C98.2949 82.3234 98.4049 82.7984 98.4049 83.2176C98.4049 84.1816 97.7862 84.7964 96.8376 84.7964C96.0265 84.7964 95.4903 84.4052 95.1054 83.5249C94.1843 81.3593 92.3833 80.2275 90.2249 80.2275C86.8154 80.2275 84.6295 83.0778 84.6295 87.5768C84.6295 92.1038 86.8016 94.9401 90.2386 94.9401C92.507 94.9401 94.253 93.9341 95.1604 91.8104C95.5178 90.986 95.9715 90.6507 96.7414 90.6507C97.7175 90.6507 98.3911 91.3074 98.3911 92.2575C98.3911 92.7186 98.2811 93.1377 98.0612 93.6128C96.7964 96.3513 93.978 98 90.2661 98Z" fill="#3673F5"/>
<path d="M107.575 97.9581C103.299 97.9581 100.522 95.0659 100.522 90.2595C100.522 85.481 103.327 82.5469 107.575 82.5469C111.823 82.5469 114.627 85.4671 114.627 90.2595C114.627 95.0659 111.85 97.9581 107.575 97.9581ZM107.575 95.2056C109.747 95.2056 111.149 93.4172 111.149 90.2595C111.149 87.1158 109.747 85.3134 107.575 85.3134C105.416 85.3134 104 87.1158 104 90.2595C104 93.4172 105.403 95.2056 107.575 95.2056Z" fill="#3673F5"/>
<path d="M118.532 97.9441C117.528 97.9441 116.827 97.2874 116.827 96.1138V84.3214C116.827 83.2455 117.446 82.5609 118.463 82.5609C119.467 82.5609 120.154 83.2455 120.154 84.3214V85.3553H120.223C121.006 83.5948 122.519 82.5749 124.76 82.5749C127.977 82.5749 129.805 84.6707 129.805 88.0938V96.1138C129.805 97.2874 129.104 97.9441 128.1 97.9441C127.097 97.9441 126.382 97.2874 126.382 96.1138V88.7924C126.382 86.6966 125.42 85.523 123.467 85.523C121.501 85.523 120.25 86.9621 120.25 89.0858V96.1138C120.25 97.2874 119.535 97.9441 118.532 97.9441Z" fill="#3673F5"/>
<path d="M135.222 97.9441C134.191 97.9441 133.503 97.3014 133.503 96.1277V85.5369H132.596C131.826 85.5369 131.276 85.0619 131.276 84.2096C131.276 83.3992 131.826 82.8962 132.596 82.8962H133.503V81.5828C133.503 78.6906 134.892 77.3633 137.518 77.3493C139.332 77.3493 140.144 77.9361 140.144 78.8024C140.144 79.3333 139.896 79.6547 139.387 79.8084C139.167 79.8643 138.934 79.8922 138.631 79.9062C137.38 79.9341 136.872 80.493 136.872 81.7365V82.8962H138.714C139.47 82.8962 140.02 83.3992 140.02 84.2096C140.02 85.0619 139.47 85.5369 138.714 85.5369H136.927V96.1277C136.927 97.3014 136.239 97.9441 135.222 97.9441Z" fill="#3673F5"/>
<path d="M143.828 80.7725C142.769 80.7725 141.931 79.9341 141.931 78.8862C141.931 77.8244 142.769 77 143.828 77C144.9 77 145.739 77.8244 145.739 78.8862C145.739 79.9341 144.9 80.7725 143.828 80.7725ZM143.828 97.9441C142.783 97.9441 142.123 97.2455 142.123 96.1138V84.3912C142.123 83.2735 142.783 82.5609 143.828 82.5609C144.873 82.5609 145.547 83.2735 145.547 84.4052V96.1138C145.547 97.2455 144.873 97.9441 143.828 97.9441Z" fill="#3673F5"/>
<path d="M153.864 97.9022C150.193 97.9022 147.815 94.9541 147.815 90.2455C147.815 85.5649 150.193 82.6028 153.864 82.6028C155.954 82.6028 157.603 83.7066 158.373 85.3413H158.456V79.0539C158.456 77.8802 159.157 77.2236 160.161 77.2236C161.164 77.2236 161.879 77.8802 161.879 79.0539V96.1976C161.879 97.3154 161.178 97.9441 160.188 97.9441C159.198 97.9441 158.456 97.3293 158.456 96.1976V95.0379H158.387C157.686 96.7425 156.119 97.9022 153.864 97.9022ZM154.895 95.0519C157.054 95.0519 158.47 93.1936 158.47 90.2595C158.47 87.3533 157.054 85.4671 154.895 85.4671C152.695 85.4671 151.321 87.3253 151.321 90.2595C151.321 93.2076 152.682 95.0519 154.895 95.0519Z" fill="#3673F5"/>
<path d="M171.228 97.9581C166.773 97.9581 164.147 95.1218 164.147 90.3154C164.147 85.5928 166.828 82.5469 171.035 82.5469C175.022 82.5469 177.744 85.4251 177.744 89.4491C177.744 90.483 177.167 91.0978 176.149 91.0978H167.557V91.2096C167.557 93.6826 168.973 95.2754 171.2 95.2754C172.74 95.2754 173.743 94.7305 174.843 93.3054C175.201 92.9002 175.517 92.7465 175.998 92.7465C176.768 92.7465 177.373 93.2495 177.373 94.0878C177.373 94.3533 177.29 94.6607 177.139 94.9681C176.177 96.8543 174.005 97.9581 171.228 97.9581ZM167.584 88.8064H174.39C174.321 86.6547 172.974 85.2435 171.049 85.2435C169.124 85.2435 167.722 86.6826 167.584 88.8064Z" fill="#3673F5"/>
<path d="M181.662 97.9441C180.659 97.9441 179.958 97.2874 179.958 96.1138V84.3214C179.958 83.2455 180.576 82.5609 181.594 82.5609C182.597 82.5609 183.285 83.2455 183.285 84.3214V85.3553H183.353C184.137 83.5948 185.649 82.5749 187.89 82.5749C191.107 82.5749 192.936 84.6707 192.936 88.0938V96.1138C192.936 97.2874 192.234 97.9441 191.231 97.9441C190.227 97.9441 189.512 97.2874 189.512 96.1138V88.7924C189.512 86.6966 188.55 85.523 186.598 85.523C184.632 85.523 183.381 86.9621 183.381 89.0858V96.1138C183.381 97.2874 182.666 97.9441 181.662 97.9441Z" fill="#3673F5"/>
<path d="M196.634 94.004V85.5369H195.713C194.86 85.5369 194.338 85.02 194.338 84.1816C194.338 83.3573 194.86 82.8543 195.713 82.8543H196.634V80.8842C196.634 79.7665 197.294 79.0679 198.352 79.0679C199.397 79.0679 200.057 79.7665 200.057 80.8842V82.8543H201.638C202.49 82.8543 203.013 83.3573 203.013 84.1816C203.013 85.02 202.49 85.5369 201.638 85.5369H200.057V93.2495C200.057 94.3673 200.442 94.8563 201.432 94.9401L201.679 94.9681C202.587 95.0519 203.054 95.4431 203.054 96.2535C203.054 97.2735 202.174 97.8184 200.607 97.8184H200.469C197.926 97.8184 196.634 96.5329 196.634 94.004Z" fill="#3673F5"/>
<path d="M206.931 80.7725C205.872 80.7725 205.034 79.9341 205.034 78.8862C205.034 77.8244 205.872 77 206.931 77C208.003 77 208.842 77.8244 208.842 78.8862C208.842 79.9341 208.003 80.7725 206.931 80.7725ZM206.931 97.9441C205.886 97.9441 205.226 97.2455 205.226 96.1138V84.3912C205.226 83.2735 205.886 82.5609 206.931 82.5609C207.976 82.5609 208.649 83.2735 208.649 84.4052V96.1138C208.649 97.2455 207.976 97.9441 206.931 97.9441Z" fill="#3673F5"/>
<path d="M215.798 97.9022C212.98 97.9022 210.932 96.0998 210.932 93.4311C210.932 90.8044 212.925 89.2255 216.472 89.002L220.335 88.7784V87.7166C220.335 86.1657 219.304 85.2715 217.613 85.2715C216.28 85.2715 215.413 85.7325 214.561 87.004C214.204 87.479 213.75 87.7026 213.173 87.7026C212.334 87.7026 211.729 87.1437 211.729 86.3054C211.729 85.984 211.811 85.6766 211.963 85.3553C212.705 83.6367 214.96 82.5469 217.751 82.5469C221.366 82.5469 223.717 84.489 223.717 87.4651V96.1976C223.717 97.3154 223.016 97.9441 222.054 97.9441C221.119 97.9441 220.473 97.3713 220.418 96.3373V95.3034H220.349C219.51 96.9102 217.682 97.9022 215.798 97.9022ZM216.843 95.2754C218.768 95.2754 220.335 93.9621 220.335 92.1737V91.0419L216.953 91.2515C215.303 91.3633 214.355 92.1178 214.355 93.2914C214.355 94.507 215.358 95.2754 216.843 95.2754Z" fill="#3673F5"/>
<path d="M228.295 97.9441C227.292 97.9441 226.577 97.2874 226.577 96.1138V79.0539C226.577 77.8802 227.292 77.2236 228.295 77.2236C229.299 77.2236 230 77.8802 230 79.0539V96.1138C230 97.2874 229.299 97.9441 228.295 97.9441Z" fill="#3673F5"/>
<path d="M97.6957 150.884C95.3768 150.884 93.9855 149.464 93.9855 147.001V114.896H84.4203C82.3913 114.896 81 113.679 81 111.738C81 109.796 82.3623 108.58 84.4203 108.58H111C113.058 108.58 114.42 109.796 114.42 111.738C114.42 113.679 113.029 114.896 111 114.896H101.435V147.001C101.435 149.464 100.043 150.884 97.6957 150.884Z" fill="#3673F5"/>
<path d="M124.739 151C115.725 151 109.87 145.002 109.87 135.034C109.87 125.125 115.783 119.04 124.739 119.04C133.696 119.04 139.609 125.096 139.609 135.034C139.609 145.002 133.754 151 124.739 151ZM124.739 145.292C129.319 145.292 132.275 141.583 132.275 135.034C132.275 128.515 129.319 124.777 124.739 124.777C120.188 124.777 117.203 128.515 117.203 135.034C117.203 141.583 120.159 145.292 124.739 145.292Z" fill="#3673F5"/>
<path d="M148.072 150.971C145.957 150.971 144.449 149.609 144.449 147.175V111.796C144.449 109.362 145.957 108 148.072 108C150.188 108 151.667 109.362 151.667 111.796V132.369H151.754L163.812 120.46C164.739 119.474 165.522 119.069 166.623 119.069C168.42 119.069 169.783 120.431 169.783 122.169C169.783 123.241 169.464 123.908 168.478 124.835L159.725 133.122L169.348 145.147C170.101 146.19 170.333 146.827 170.333 147.755C170.333 149.638 168.913 150.971 166.913 150.971C165.493 150.971 164.652 150.478 163.609 148.972L154.391 137.294L151.667 139.844V147.175C151.667 149.609 150.188 150.971 148.072 150.971Z" fill="#3673F5"/>
<path d="M187.232 151C177.841 151 172.304 145.118 172.304 135.15C172.304 125.356 177.957 119.04 186.826 119.04C195.232 119.04 200.971 125.009 200.971 133.354C200.971 135.498 199.754 136.773 197.609 136.773H179.493V137.005C179.493 142.133 182.478 145.437 187.174 145.437C190.42 145.437 192.536 144.307 194.855 141.351C195.609 140.511 196.275 140.192 197.29 140.192C198.913 140.192 200.188 141.235 200.188 142.974C200.188 143.524 200.014 144.162 199.696 144.799C197.667 148.711 193.087 151 187.232 151ZM179.551 132.021H193.899C193.754 127.559 190.913 124.632 186.855 124.632C182.797 124.632 179.841 127.617 179.551 132.021Z" fill="#3673F5"/>
<path d="M209.232 150.971C207.116 150.971 205.638 149.609 205.638 147.175V122.72C205.638 120.489 206.942 119.069 209.087 119.069C211.203 119.069 212.652 120.489 212.652 122.72V124.864H212.797C214.449 121.213 217.638 119.098 222.362 119.098C229.145 119.098 233 123.444 233 130.543V147.175C233 149.609 231.522 150.971 229.406 150.971C227.29 150.971 225.783 149.609 225.783 147.175V131.992C225.783 127.646 223.754 125.212 219.638 125.212C215.493 125.212 212.855 128.196 212.855 132.6V147.175C212.855 149.609 211.348 150.971 209.232 150.971Z" fill="#3673F5"/>
<path d="M302.5 122C335.019 122 362.547 143.413 371.734 172.918L372.462 175.255L374.874 175.671C396.527 179.404 413 198.282 413 221C413 246.405 392.405 267 367 267H302.501C302.501 267 302.5 267 302.5 271V267H239.001C239.001 267 239 267 239 271V267C213.595 267 193 246.405 193 221C193 198.974 208.484 180.557 229.162 176.054L230.15 175.85L232.502 175.392L233.208 173.103C242.338 143.503 269.913 122 302.5 122Z" fill="#B0DBFF" stroke="#3673F5" stroke-width="8"/>
<path d="M284 228C287.702 233.356 298.279 240.855 310.972 228" stroke="#3673F5" stroke-width="8" stroke-linecap="round"/>
<path d="M268.078 184.363C269.449 181.059 271.275 178.416 273.21 176.935C275.144 175.455 277.054 175.24 278.574 176.331C280.095 177.423 281.122 179.745 281.46 182.857C281.797 185.968 281.423 189.653 280.406 193.211C279.39 196.769 277.803 199.953 275.947 202.158C274.091 204.363 272.094 205.436 270.337 205.173C268.579 204.91 267.183 203.329 266.413 200.731C265.643 198.132 265.553 194.697 266.16 191.078L273.672 190.428L268.078 184.363Z" fill="#3673F5"/>
<path d="M317.421 184.363C318.792 181.059 320.617 178.416 322.552 176.935C324.487 175.455 326.396 175.24 327.917 176.331C329.438 177.423 330.465 179.745 330.803 182.857C331.14 185.968 330.765 189.653 329.749 193.211C328.733 196.769 327.146 199.953 325.29 202.158C323.433 204.363 321.437 205.436 319.68 205.173C317.922 204.91 316.526 203.329 315.756 200.731C314.986 198.132 314.896 194.697 315.503 191.078L323.014 190.428L317.421 184.363Z" fill="#3673F5"/>
</svg>
