<svg width="1165" height="101" viewBox="0 0 1165 101" fill="none" xmlns="http://www.w3.org/2000/svg">
<path fill-rule="evenodd" clip-rule="evenodd" d="M-190.916 303.325H406.599C428.545 279.217 441.923 247.173 441.923 212.003C441.923 137.057 381.167 76.3008 306.221 76.3008C286.99 76.3008 268.694 80.3009 252.119 87.5144C218.216 46.8661 167.188 21 110.118 21C46.2768 21 -10.0046 53.3692 -43.2091 102.591C-50.0499 101.57 -57.0515 101.041 -64.1768 101.041C-141.951 101.041 -205 164.089 -205 241.864C-205 263.9 -199.939 284.753 -190.916 303.325Z" fill="#B0DBFF"/>
<path fill-rule="evenodd" clip-rule="evenodd" d="M99.0842 282.325H696.599C718.545 258.217 731.923 226.173 731.923 191.003C731.923 116.057 671.167 55.3008 596.221 55.3008C576.99 55.3008 558.694 59.3009 542.119 66.5144C508.216 25.8661 457.188 0 400.118 0C336.277 0 279.995 32.3692 246.791 81.591C239.95 80.5698 232.948 80.0406 225.823 80.0406C148.049 80.0406 84.9999 143.089 84.9999 220.864C84.9999 242.9 90.061 263.753 99.0842 282.325Z" fill="#B0DBFF"/>
<path fill-rule="evenodd" clip-rule="evenodd" d="M532.084 303.325H1129.6C1151.54 279.217 1164.92 247.173 1164.92 212.003C1164.92 137.057 1104.17 76.3008 1029.22 76.3008C1009.99 76.3008 991.694 80.3009 975.119 87.5144C941.216 46.8661 890.188 21 833.118 21C769.277 21 712.995 53.3692 679.791 102.591C672.95 101.57 665.948 101.041 658.823 101.041C581.049 101.041 518 164.089 518 241.864C518 263.9 523.061 284.753 532.084 303.325Z" fill="#B0DBFF"/>
</svg>
