<svg width="36" height="36" viewBox="0 0 36 36" fill="none" xmlns="http://www.w3.org/2000/svg">
<path d="M18 36C27.9751 36 36 27.9751 36 18C36 8.02494 27.9751 0 18 0C8.02494 0 0 8.02494 0 18C0 27.9751 8.02494 36 18 36Z" fill="#2775CA"/>
<path d="M22.95 20.8499C22.95 18.225 21.375 17.325 18.225 16.95C15.975 16.65 15.525 16.05 15.525 14.9999C15.525 13.9498 16.275 13.275 17.775 13.275C19.125 13.275 19.875 13.725 20.25 14.85C20.325 15.075 20.55 15.2249 20.775 15.2249H21.9749C22.275 15.2249 22.5 14.9999 22.5 14.7V14.625C22.1999 12.9749 20.8499 11.7 19.125 11.55V9.75002C19.125 9.44996 18.9 9.22496 18.525 9.1499H17.4C17.1 9.1499 16.875 9.3749 16.7999 9.75002V11.475C14.5499 11.775 13.125 13.275 13.125 15.15C13.125 17.625 14.625 18.5999 17.775 18.975C19.875 19.35 20.55 19.8 20.55 21C20.55 22.2001 19.4999 23.025 18.075 23.025C16.1249 23.025 15.4499 22.1999 15.2249 21.0749C15.15 20.775 14.925 20.6249 14.7 20.6249H13.4249C13.125 20.6249 12.9 20.8499 12.9 21.15V21.225C13.1999 23.0999 14.4 24.4499 16.875 24.825V26.625C16.875 26.9249 17.1 27.1499 17.4749 27.225H18.5999C18.9 27.225 19.125 27 19.2 26.625V24.825C21.45 24.4499 22.95 22.8749 22.95 20.8499Z" fill="white"/>
<path d="M14.175 28.7249C8.325 26.625 5.32494 20.1 7.50006 14.3249C8.62506 11.1749 11.1001 8.77494 14.175 7.64994C14.4751 7.5 14.625 7.275 14.625 6.89988V5.84994C14.625 5.54988 14.4751 5.32488 14.175 5.25C14.0999 5.25 13.95 5.25 13.8749 5.32488C6.75 7.57488 2.84994 15.15 5.09994 22.2749C6.44994 26.4749 9.675 29.6999 13.8749 31.0499C14.175 31.1999 14.4751 31.0499 14.5499 30.7499C14.625 30.675 14.625 30.5999 14.625 30.45V29.3999C14.625 29.1749 14.4 28.875 14.175 28.7249ZM22.1251 5.32488C21.825 5.17494 21.5249 5.32488 21.4501 5.62494C21.375 5.7 21.375 5.77488 21.375 5.925V6.97494C21.375 7.275 21.6 7.57488 21.825 7.725C27.675 9.82488 30.6751 16.3499 28.4999 22.125C27.3749 25.275 24.8999 27.6749 21.825 28.7999C21.5249 28.9499 21.375 29.1749 21.375 29.55V30.5999C21.375 30.9 21.5249 31.125 21.825 31.1999C21.9001 31.1999 22.05 31.1999 22.1251 31.125C29.25 28.875 33.1501 21.2999 30.9001 14.1749C29.5501 9.89994 26.2499 6.67488 22.1251 5.32488Z" fill="white"/>
</svg>
